<?xml version="1.0" encoding="UTF-8"?>
<!DOCTYPE svg PUBLIC "-//W3C//DTD SVG 1.1//EN" "http://www.w3.org/Graphics/SVG/1.1/DTD/svg11.dtd">
<svg xmlns="http://www.w3.org/2000/svg" version="1.1" width="1251px" height="417px" style="shape-rendering:geometricPrecision; text-rendering:geometricPrecision; image-rendering:optimizeQuality; fill-rule:evenodd; clip-rule:evenodd" xmlns:xlink="http://www.w3.org/1999/xlink">
<g><path style="opacity:0.848" fill="#D3D3D3" d="M 814.5,83.5 C 816.167,83.5 817.833,83.5 819.5,83.5C 819.5,163.167 819.5,242.833 819.5,322.5C 817.833,322.5 816.167,322.5 814.5,322.5C 814.5,242.833 814.5,163.167 814.5,83.5 Z"/></g>
<g><path style="opacity:0.967" fill="#D3D3D3" d="M 183.5,117.5 C 198.107,139.793 212.774,162.126 227.5,184.5C 270.91,161.798 314.244,139.798 357.5,118.5C 321.749,174.337 285.749,230.004 249.5,285.5C 234.5,286.833 219.5,286.833 204.5,285.5C 225.624,253.419 246.624,221.252 267.5,189C 247.367,198.4 227.367,208.4 207.5,219C 206.5,219.667 205.5,219.667 204.5,219C 190.151,196.656 175.818,174.323 161.5,152C 168.713,140.404 176.046,128.904 183.5,117.5 Z"/></g>
<g><path style="opacity:0.935" fill="#D3D3D3" d="M 947.5,117.5 C 952.5,117.5 957.5,117.5 962.5,117.5C 962.5,127.833 962.5,138.167 962.5,148.5C 965.167,148.5 967.833,148.5 970.5,148.5C 970.5,150.167 970.5,151.833 970.5,153.5C 962.833,153.5 955.167,153.5 947.5,153.5C 947.5,151.833 947.5,150.167 947.5,148.5C 950.167,148.5 952.833,148.5 955.5,148.5C 955.5,139.833 955.5,131.167 955.5,122.5C 952.833,122.5 950.167,122.5 947.5,122.5C 947.5,120.833 947.5,119.167 947.5,117.5 Z"/></g>
<g><path style="opacity:0.935" fill="#D3D3D3" d="M 1064.5,117.5 C 1069.5,117.5 1074.5,117.5 1079.5,117.5C 1079.5,127.833 1079.5,138.167 1079.5,148.5C 1082.17,148.5 1084.83,148.5 1087.5,148.5C 1087.5,150.167 1087.5,151.833 1087.5,153.5C 1079.83,153.5 1072.17,153.5 1064.5,153.5C 1064.5,151.833 1064.5,150.167 1064.5,148.5C 1067.17,148.5 1069.83,148.5 1072.5,148.5C 1072.5,139.833 1072.5,131.167 1072.5,122.5C 1069.83,122.5 1067.17,122.5 1064.5,122.5C 1064.5,120.833 1064.5,119.167 1064.5,117.5 Z"/></g>
<g><path style="opacity:0.978" fill="#D3D3D3" d="M 441.5,119.5 C 471.502,119.333 501.502,119.5 531.5,120C 538.209,130.585 545.042,141.085 552,151.5C 552.257,154.017 551.59,156.35 550,158.5C 536.402,179.376 522.568,200.042 508.5,220.5C 500.955,209.458 493.622,198.292 486.5,187C 493.485,176.01 500.485,165.01 507.5,154C 479.167,153.333 450.833,153.333 422.5,154C 401.167,187 379.833,220 358.5,253C 372.833,253.333 387.167,253.667 401.5,254C 408.375,264.918 415.375,275.752 422.5,286.5C 393.172,287.667 363.839,287.833 334.5,287C 327.791,276.415 320.958,265.915 314,255.5C 313.48,253.711 313.813,252.044 315,250.5C 336.376,217.581 357.876,184.748 379.5,152C 400.386,141.392 421.052,130.559 441.5,119.5 Z"/></g>
<g><path style="opacity:0.972" fill="#D3D3D3" d="M 659.5,119.5 C 688.841,119.167 718.174,119.5 747.5,120.5C 740.874,131.589 733.874,142.422 726.5,153C 697.5,153.333 668.5,153.667 639.5,154C 632.623,164.254 625.623,174.42 618.5,184.5C 647.161,185.333 675.828,185.833 704.5,186C 711.958,197.081 719.291,208.248 726.5,219.5C 719.417,231.335 712.083,243.002 704.5,254.5C 696.476,243.631 688.809,232.465 681.5,221C 652.494,220.833 623.494,220.333 594.5,219.5C 587.625,208.249 580.625,197.082 573.5,186C 580.833,174.667 588.167,163.333 595.5,152C 617.05,141.392 638.383,130.559 659.5,119.5 Z"/></g>
<g><path style="opacity:0.897" fill="#D3D3D3" d="M 887.5,119.5 C 890.5,119.5 893.5,119.5 896.5,119.5C 897.246,123.07 898.579,126.404 900.5,129.5C 902.103,126.627 903.436,123.627 904.5,120.5C 907.086,119.52 909.753,119.187 912.5,119.5C 912.5,130.833 912.5,142.167 912.5,153.5C 910.5,153.5 908.5,153.5 906.5,153.5C 906.666,146.159 906.5,138.826 906,131.5C 904.381,136.365 902.381,141.032 900,145.5C 897.804,140.58 895.804,135.58 894,130.5C 893.5,138.159 893.334,145.826 893.5,153.5C 891.5,153.5 889.5,153.5 887.5,153.5C 887.5,142.167 887.5,130.833 887.5,119.5 Z"/></g>
<g><path style="opacity:0.886" fill="#D3D3D3" d="M 925.5,127.5 C 939.815,126.66 945.315,133.327 942,147.5C 938.345,154.07 932.845,156.237 925.5,154C 922.417,153.214 920.251,151.381 919,148.5C 915.504,139.497 917.671,132.497 925.5,127.5 Z M 928.5,132.5 C 933.934,132.768 936.267,135.601 935.5,141C 935.649,148.331 932.483,150.497 926,147.5C 923.463,141.727 924.296,136.727 928.5,132.5 Z"/></g>
<g><path style="opacity:0.889" fill="#D3D3D3" d="M 983.5,127.5 C 995.129,125.797 1000.8,130.797 1000.5,142.5C 994.463,142.171 988.463,142.504 982.5,143.5C 983.549,146.716 985.716,148.716 989,149.5C 991.735,148.377 994.235,147.21 996.5,146C 1000.47,149.47 999.802,152.137 994.5,154C 980.756,156.889 974.59,151.389 976,137.5C 976.846,132.76 979.346,129.426 983.5,127.5 Z M 986.5,132.5 C 990.72,132.427 993.054,134.427 993.5,138.5C 989.818,138.665 986.152,138.499 982.5,138C 983.036,135.492 984.369,133.659 986.5,132.5 Z"/></g>
<g><path style="opacity:0.86" fill="#D3D3D3" d="M 1014.5,127.5 C 1017.85,127.335 1021.18,127.502 1024.5,128C 1030.94,131.082 1030.94,133.916 1024.5,136.5C 1020.9,131.229 1017.4,131.229 1014,136.5C 1013.15,140.536 1013.65,144.369 1015.5,148C 1019.39,149.911 1022.72,149.077 1025.5,145.5C 1031.68,148.346 1031.34,151.18 1024.5,154C 1010.2,156.03 1004.37,149.863 1007,135.5C 1008.38,131.625 1010.88,128.958 1014.5,127.5 Z"/></g>
<g><path style="opacity:0.883" fill="#D3D3D3" d="M 1099.5,127.5 C 1102.85,127.335 1106.18,127.502 1109.5,128C 1111.33,128.273 1112.83,129.107 1114,130.5C 1115.41,136.379 1115.91,142.379 1115.5,148.5C 1116.5,148.5 1117.5,148.5 1118.5,148.5C 1118.5,150.167 1118.5,151.833 1118.5,153.5C 1114.71,154.186 1111.55,153.186 1109,150.5C 1107.47,153.516 1104.97,154.849 1101.5,154.5C 1095.99,154.658 1092.99,151.991 1092.5,146.5C 1092.48,142.37 1094.48,139.87 1098.5,139C 1101.82,138.502 1105.15,138.335 1108.5,138.5C 1108.8,134.149 1106.8,132.316 1102.5,133C 1100.51,133.574 1099.01,134.741 1098,136.5C 1095.42,135.61 1094.09,133.943 1094,131.5C 1095.5,129.531 1097.33,128.198 1099.5,127.5 Z M 1102.5,142.5 C 1104.5,142.5 1106.5,142.5 1108.5,142.5C 1109.42,146.459 1107.92,148.792 1104,149.5C 1098.62,148.093 1098.12,145.759 1102.5,142.5 Z"/></g>
<g><path style="opacity:0.894" fill="#D3D3D3" d="M 1035.5,128.5 C 1037.83,128.5 1040.17,128.5 1042.5,128.5C 1042.33,134.509 1042.5,140.509 1043,146.5C 1045.24,150.02 1047.9,150.353 1051,147.5C 1051.5,141.175 1051.67,134.842 1051.5,128.5C 1053.83,128.5 1056.17,128.5 1058.5,128.5C 1058.5,136.833 1058.5,145.167 1058.5,153.5C 1055.61,153.958 1053.11,153.291 1051,151.5C 1046.4,155.432 1041.74,155.432 1037,151.5C 1035.6,143.92 1035.1,136.253 1035.5,128.5 Z"/></g>
<g><path style="opacity:0.915" fill="#D3D3D3" d="M 1123.5,128.5 C 1128.17,128.5 1132.83,128.5 1137.5,128.5C 1137.35,129.552 1137.52,130.552 1138,131.5C 1140.98,128.9 1144.48,127.9 1148.5,128.5C 1148.5,130.167 1148.5,131.833 1148.5,133.5C 1144.48,132.9 1140.98,133.9 1138,136.5C 1137.5,140.486 1137.33,144.486 1137.5,148.5C 1140.17,148.5 1142.83,148.5 1145.5,148.5C 1145.5,150.167 1145.5,151.833 1145.5,153.5C 1138.17,153.5 1130.83,153.5 1123.5,153.5C 1123.5,151.833 1123.5,150.167 1123.5,148.5C 1125.83,148.5 1128.17,148.5 1130.5,148.5C 1130.5,143.5 1130.5,138.5 1130.5,133.5C 1128.17,133.5 1125.83,133.5 1123.5,133.5C 1123.5,131.833 1123.5,130.167 1123.5,128.5 Z"/></g>
<g><path style="opacity:0.966" fill="#D3D3D3" d="M 139.5,185.5 C 147.144,196.768 154.81,208.101 162.5,219.5C 148.042,241.582 133.709,263.748 119.5,286C 104.5,286.667 89.5,286.667 74.5,286C 96.0526,252.387 117.719,218.887 139.5,185.5 Z"/></g>
<g><path style="opacity:0.964" fill="#D3D3D3" d="M 444.5,186.5 C 466.833,219.522 488.833,252.855 510.5,286.5C 503.561,298.103 496.227,309.436 488.5,320.5C 465.638,287.954 443.638,254.788 422.5,221C 429.713,209.404 437.046,197.904 444.5,186.5 Z"/></g>
<g><path style="opacity:0.868" fill="#D3D3D3" d="M 895.5,186.5 C 905.031,184.507 910.865,188.173 913,197.5C 914.366,205.133 913.199,212.3 909.5,219C 907.783,220.559 905.783,221.392 903.5,221.5C 903.5,222.833 903.5,224.167 903.5,225.5C 906.167,225.5 908.833,225.5 911.5,225.5C 911.5,227.167 911.5,228.833 911.5,230.5C 907.033,230.867 902.7,230.367 898.5,229C 897.729,226.423 896.729,223.923 895.5,221.5C 889.121,217.748 886.121,212.081 886.5,204.5C 886.709,199.568 887.876,194.901 890,190.5C 891.5,188.531 893.333,187.198 895.5,186.5 Z M 898.5,191.5 C 901.561,191.444 903.728,192.778 905,195.5C 905.667,201.167 905.667,206.833 905,212.5C 901.181,218.014 897.847,217.681 895,211.5C 894.333,206.5 894.333,201.5 895,196.5C 895.697,194.416 896.864,192.749 898.5,191.5 Z"/></g>
<g><path style="opacity:0.924" fill="#D3D3D3" d="M 1012.5,187.5 C 1014.83,187.5 1017.17,187.5 1019.5,187.5C 1019.5,190.5 1019.5,193.5 1019.5,196.5C 1022.83,196.5 1026.17,196.5 1029.5,196.5C 1029.5,198.167 1029.5,199.833 1029.5,201.5C 1026.17,201.5 1022.83,201.5 1019.5,201.5C 1019.5,206.5 1019.5,211.5 1019.5,216.5C 1022.83,216.5 1026.17,216.5 1029.5,216.5C 1029.5,218.167 1029.5,219.833 1029.5,221.5C 1024.82,221.666 1020.15,221.499 1015.5,221C 1014.67,220.167 1013.83,219.333 1013,218.5C 1012.5,212.843 1012.33,207.176 1012.5,201.5C 1010.17,201.5 1007.83,201.5 1005.5,201.5C 1005.5,199.833 1005.5,198.167 1005.5,196.5C 1007.79,196.756 1009.96,196.423 1012,195.5C 1012.5,192.854 1012.66,190.187 1012.5,187.5 Z"/></g>
<g><path style="opacity:0.883" fill="#D3D3D3" d="M 953.5,195.5 C 956.85,195.335 960.183,195.502 963.5,196C 965.329,196.273 966.829,197.107 968,198.5C 969.41,204.379 969.91,210.379 969.5,216.5C 970.5,216.5 971.5,216.5 972.5,216.5C 972.5,218.167 972.5,219.833 972.5,221.5C 968.713,222.186 965.546,221.186 963,218.5C 961.471,221.516 958.971,222.849 955.5,222.5C 949.991,222.658 946.991,219.991 946.5,214.5C 946.484,210.37 948.484,207.87 952.5,207C 955.817,206.502 959.15,206.335 962.5,206.5C 962.795,202.149 960.795,200.316 956.5,201C 954.508,201.574 953.008,202.741 952,204.5C 949.419,203.61 948.086,201.943 948,199.5C 949.5,197.531 951.333,196.198 953.5,195.5 Z M 956.5,210.5 C 958.5,210.5 960.5,210.5 962.5,210.5C 963.422,214.459 961.922,216.792 958,217.5C 952.619,216.093 952.119,213.759 956.5,210.5 Z"/></g>
<g><path style="opacity:0.893" fill="#D3D3D3" d="M 987.5,195.5 C 992.223,194.553 996.056,195.886 999,199.5C 999.5,206.826 999.666,214.159 999.5,221.5C 997.167,221.5 994.833,221.5 992.5,221.5C 992.666,215.158 992.5,208.825 992,202.5C 988.949,199.626 986.282,199.959 984,203.5C 983.501,209.491 983.334,215.491 983.5,221.5C 981.167,221.5 978.833,221.5 976.5,221.5C 976.5,213.167 976.5,204.833 976.5,196.5C 978.833,196.5 981.167,196.5 983.5,196.5C 983.351,197.552 983.517,198.552 984,199.5C 984.69,197.65 985.856,196.316 987.5,195.5 Z"/></g>
<g><path style="opacity:0.855" fill="#D3D3D3" d="M 1070.5,195.5 C 1072.53,195.338 1074.53,195.505 1076.5,196C 1077.53,199.057 1078.86,199.057 1080.5,196C 1083.1,195.231 1085.6,195.398 1088,196.5C 1089.41,204.749 1089.91,213.083 1089.5,221.5C 1087.5,221.5 1085.5,221.5 1083.5,221.5C 1083.67,214.825 1083.5,208.158 1083,201.5C 1082,200.167 1081,200.167 1080,201.5C 1079.5,208.158 1079.33,214.825 1079.5,221.5C 1077.5,221.5 1075.5,221.5 1073.5,221.5C 1073.67,215.158 1073.5,208.825 1073,202.5C 1071.67,199.833 1070.33,199.833 1069,202.5C 1068.5,208.825 1068.33,215.158 1068.5,221.5C 1066.5,221.5 1064.5,221.5 1062.5,221.5C 1062.5,213.167 1062.5,204.833 1062.5,196.5C 1065.08,196.083 1067.25,196.75 1069,198.5C 1069.51,197.473 1070.01,196.473 1070.5,195.5 Z"/></g>
<g><path style="opacity:0.894" fill="#D3D3D3" d="M 918.5,196.5 C 920.833,196.5 923.167,196.5 925.5,196.5C 925.334,202.509 925.501,208.509 926,214.5C 928.237,218.02 930.904,218.353 934,215.5C 934.5,209.175 934.666,202.842 934.5,196.5C 936.833,196.5 939.167,196.5 941.5,196.5C 941.5,204.833 941.5,213.167 941.5,221.5C 938.606,221.958 936.106,221.291 934,219.5C 929.404,223.432 924.737,223.432 920,219.5C 918.604,211.92 918.104,204.253 918.5,196.5 Z"/></g>
<g><path style="opacity:0.894" fill="#D3D3D3" d="M 1035.5,196.5 C 1037.83,196.5 1040.17,196.5 1042.5,196.5C 1042.33,202.509 1042.5,208.509 1043,214.5C 1045.24,218.02 1047.9,218.353 1051,215.5C 1051.5,209.175 1051.67,202.842 1051.5,196.5C 1053.83,196.5 1056.17,196.5 1058.5,196.5C 1058.5,204.833 1058.5,213.167 1058.5,221.5C 1055.61,221.958 1053.11,221.291 1051,219.5C 1046.4,223.432 1041.74,223.432 1037,219.5C 1035.6,211.92 1035.1,204.253 1035.5,196.5 Z"/></g>
<g><path style="opacity:0.963" fill="#D3D3D3" d="M 551.5,220.5 C 552.496,220.414 553.329,220.748 554,221.5C 560.709,231.753 567.543,241.92 574.5,252C 603.5,252.333 632.5,252.667 661.5,253C 668.698,264.034 675.698,275.2 682.5,286.5C 638.837,287.667 595.17,287.833 551.5,287C 543.994,276.322 536.994,265.322 530.5,254C 537.63,242.906 544.63,231.739 551.5,220.5 Z"/></g>
<g><path style="opacity:0.836" fill="#D3D3D3" d="M 1045.5,251.5 C 1051.9,250.252 1054.23,252.585 1052.5,258.5C 1045.13,261.125 1042.79,258.792 1045.5,251.5 Z"/></g>
<g><path style="opacity:0.935" fill="#D3D3D3" d="M 947.5,252.5 C 952.5,252.5 957.5,252.5 962.5,252.5C 962.5,262.833 962.5,273.167 962.5,283.5C 965.167,283.5 967.833,283.5 970.5,283.5C 970.5,285.167 970.5,286.833 970.5,288.5C 962.833,288.5 955.167,288.5 947.5,288.5C 947.5,286.833 947.5,285.167 947.5,283.5C 950.167,283.5 952.833,283.5 955.5,283.5C 955.5,274.833 955.5,266.167 955.5,257.5C 952.833,257.5 950.167,257.5 947.5,257.5C 947.5,255.833 947.5,254.167 947.5,252.5 Z"/></g>
<g><path style="opacity:0.874" fill="#D3D3D3" d="M 894.5,253.5 C 898.514,253.334 902.514,253.501 906.5,254C 913.232,255.806 913.899,258.639 908.5,262.5C 905.739,259.635 902.406,258.469 898.5,259C 895.083,261.321 894.75,263.988 897.5,267C 903.177,267.454 908.01,269.621 912,273.5C 914.299,280.736 912.132,285.903 905.5,289C 898.129,290.874 891.796,289.207 886.5,284C 888,282.5 889.5,281 891,279.5C 895.279,284.514 899.945,285.18 905,281.5C 905.896,278.975 905.396,276.808 903.5,275C 900.471,274.461 897.471,273.794 894.5,273C 891.943,272.315 890.109,270.815 889,268.5C 886.958,261.873 888.792,256.873 894.5,253.5 Z"/></g>
<g><path style="opacity:0.924" fill="#D3D3D3" d="M 1012.5,254.5 C 1014.83,254.5 1017.17,254.5 1019.5,254.5C 1019.5,257.5 1019.5,260.5 1019.5,263.5C 1022.83,263.5 1026.17,263.5 1029.5,263.5C 1029.5,265.167 1029.5,266.833 1029.5,268.5C 1026.17,268.5 1022.83,268.5 1019.5,268.5C 1019.5,273.5 1019.5,278.5 1019.5,283.5C 1022.83,283.5 1026.17,283.5 1029.5,283.5C 1029.5,285.167 1029.5,286.833 1029.5,288.5C 1024.82,288.666 1020.15,288.499 1015.5,288C 1014.67,287.167 1013.83,286.333 1013,285.5C 1012.5,279.843 1012.33,274.176 1012.5,268.5C 1010.17,268.5 1007.83,268.5 1005.5,268.5C 1005.5,266.833 1005.5,265.167 1005.5,263.5C 1007.79,263.756 1009.96,263.423 1012,262.5C 1012.5,259.854 1012.66,257.187 1012.5,254.5 Z"/></g>
<g><path style="opacity:0.886" fill="#D3D3D3" d="M 925.5,262.5 C 939.815,261.66 945.315,268.327 942,282.5C 938.345,289.07 932.845,291.237 925.5,289C 922.417,288.214 920.251,286.381 919,283.5C 915.504,274.497 917.671,267.497 925.5,262.5 Z M 928.5,267.5 C 933.934,267.768 936.267,270.601 935.5,276C 935.649,283.331 932.483,285.497 926,282.5C 923.463,276.727 924.296,271.727 928.5,267.5 Z"/></g>
<g><path style="opacity:0.886" fill="#D3D3D3" d="M 1071.5,262.5 C 1085.81,261.66 1091.31,268.327 1088,282.5C 1084.34,289.07 1078.84,291.237 1071.5,289C 1068.42,288.214 1066.25,286.381 1065,283.5C 1061.5,274.497 1063.67,267.497 1071.5,262.5 Z M 1074.5,267.5 C 1079.93,267.768 1082.27,270.601 1081.5,276C 1081.65,283.331 1078.48,285.497 1072,282.5C 1069.46,276.727 1070.3,271.727 1074.5,267.5 Z"/></g>
<g><path style="opacity:0.893" fill="#D3D3D3" d="M 1104.5,262.5 C 1109.22,261.553 1113.06,262.886 1116,266.5C 1116.5,273.826 1116.67,281.159 1116.5,288.5C 1114.17,288.5 1111.83,288.5 1109.5,288.5C 1109.67,282.158 1109.5,275.825 1109,269.5C 1105.95,266.626 1103.28,266.959 1101,270.5C 1100.5,276.491 1100.33,282.491 1100.5,288.5C 1098.17,288.5 1095.83,288.5 1093.5,288.5C 1093.5,280.167 1093.5,271.833 1093.5,263.5C 1095.83,263.5 1098.17,263.5 1100.5,263.5C 1100.35,264.552 1100.52,265.552 1101,266.5C 1101.69,264.65 1102.86,263.316 1104.5,262.5 Z"/></g>
<g><path style="opacity:0.872" fill="#D3D3D3" d="M 1129.5,262.5 C 1133.51,262.334 1137.51,262.501 1141.5,263C 1147.67,264.826 1148.01,267.326 1142.5,270.5C 1138.77,267.121 1135.11,266.954 1131.5,270C 1131.91,270.945 1132.57,271.612 1133.5,272C 1138.21,272.123 1142.37,273.623 1146,276.5C 1147.26,280.909 1146.43,284.743 1143.5,288C 1135.88,290.705 1128.88,289.705 1122.5,285C 1124,283.5 1125.5,282 1127,280.5C 1130.94,284.835 1135.1,285.335 1139.5,282C 1139.36,281.228 1139.02,280.561 1138.5,280C 1133.79,279.432 1129.46,277.932 1125.5,275.5C 1123.22,269.877 1124.56,265.544 1129.5,262.5 Z"/></g>
<g><path style="opacity:0.894" fill="#D3D3D3" d="M 976.5,263.5 C 978.833,263.5 981.167,263.5 983.5,263.5C 983.334,269.509 983.501,275.509 984,281.5C 986.237,285.02 988.904,285.353 992,282.5C 992.5,276.175 992.666,269.842 992.5,263.5C 994.833,263.5 997.167,263.5 999.5,263.5C 999.5,271.833 999.5,280.167 999.5,288.5C 996.606,288.958 994.106,288.291 992,286.5C 987.404,290.432 982.737,290.432 978,286.5C 976.604,278.92 976.104,271.253 976.5,263.5 Z"/></g>
<g><path style="opacity:0.916" fill="#D3D3D3" d="M 1036.5,263.5 C 1041.83,263.5 1047.17,263.5 1052.5,263.5C 1052.5,270.167 1052.5,276.833 1052.5,283.5C 1055.17,283.5 1057.83,283.5 1060.5,283.5C 1060.5,285.167 1060.5,286.833 1060.5,288.5C 1052.5,288.5 1044.5,288.5 1036.5,288.5C 1036.5,286.833 1036.5,285.167 1036.5,283.5C 1039.5,283.5 1042.5,283.5 1045.5,283.5C 1045.5,278.5 1045.5,273.5 1045.5,268.5C 1042.5,268.5 1039.5,268.5 1036.5,268.5C 1036.5,266.833 1036.5,265.167 1036.5,263.5 Z"/></g>
</svg>
